<?xml version="1.0" encoding="utf-8"?>
<svg viewBox="0 0 931 391" fill="none" xmlns="http://www.w3.org/2000/svg">
  <defs>
    <linearGradient id="paint0_linear_2567_1177" x1="62.402" y1="174.364" x2="567.104" y2="326.728" gradientUnits="userSpaceOnUse" gradientTransform="matrix(0.688217, 0, 0, 1, -184.588299, -15.951714)">
      <stop stop-color="#066DD5"/>
      <stop offset="1" stop-color="#10E349"/>
    </linearGradient>
    <linearGradient id="paint2_linear_2567_1177" x1="662.193" y1="222.322" x2="847.711" y2="225.993" gradientUnits="userSpaceOnUse" gradientTransform="matrix(1, 0, 0, 1, -201.13942, -21.843195)">
      <stop stop-color="#FF423A"/>
      <stop offset="1" stop-color="#FCB500"/>
    </linearGradient>
    <linearGradient id="paint3_linear_2567_1177" x1="662.193" y1="222.322" x2="847.711" y2="225.993" gradientUnits="userSpaceOnUse" gradientTransform="matrix(1, 0, 0, 1, -186.577301, -25.483728)">
      <stop stop-color="#FF423A"/>
      <stop offset="1" stop-color="#FCB500"/>
    </linearGradient>
    <linearGradient id="gradient-1" x1="62.402" y1="174.364" x2="567.104" y2="326.728" gradientUnits="userSpaceOnUse" gradientTransform="matrix(1.0492, 0, 0.042138, 0.565685, -154.579214, 88.033318)">
      <stop stop-color="#066DD5"/>
      <stop offset="1" stop-color="#10E349"/>
    </linearGradient>
    <linearGradient id="gradient-2" x1="62.402" y1="174.364" x2="567.104" y2="326.728" gradientUnits="userSpaceOnUse" gradientTransform="matrix(1.087167, 0, 0.043663, 0.63721, 320.749495, 67.702191)">
      <stop stop-color="#066DD5"/>
      <stop offset="1" stop-color="#10E349"/>
    </linearGradient>
  </defs>
  <path d="M 178.011 148.524 C 176.202 160.799 173.791 173.075 171.983 185.351 C 163.545 237.084 155.711 287.938 147.273 339.673 C 146.669 344.933 144.863 346.687 141.245 346.687 C 133.41 346.687 124.973 346.687 117.137 347.565 C 113.521 347.565 111.713 345.809 111.111 340.548 C 102.07 280.924 92.426 222.177 82.784 162.553 C 81.579 156.415 80.373 149.401 79.168 143.263 C 79.168 209.025 79.168 273.91 79.168 338.795 C 79.168 346.687 77.963 348.44 72.538 347.565 C 60.484 346.687 48.431 347.565 36.376 347.565 C 33.364 347.565 32.157 346.687 32.157 341.426 C 32.157 264.264 32.157 186.227 32.157 109.067 C 32.157 82.762 46.622 62.595 64.703 62.595 C 77.36 62.595 90.62 62.595 103.276 62.595 C 108.701 62.595 110.508 64.349 111.713 72.24 C 116.536 109.067 122.562 145.893 127.384 182.72 C 127.384 183.597 127.987 184.474 127.987 186.227 C 130.397 184.474 130.397 181.843 130.397 179.213 C 135.822 143.263 141.245 106.436 146.068 70.486 C 146.669 65.226 148.479 63.472 152.095 63.472 C 164.751 63.472 177.407 63.472 190.064 63.472 C 211.159 63.472 225.02 83.639 225.02 113.451 C 225.02 173.952 225.02 234.453 225.02 294.955 C 225.02 309.861 225.02 325.642 225.02 340.548 C 225.02 346.687 224.419 348.44 219.596 348.44 C 207.543 347.565 194.887 348.44 182.832 348.44 C 178.612 348.44 178.011 346.687 178.011 341.426 C 178.011 280.048 178.612 218.67 178.612 157.292 C 178.612 154.662 178.612 152.031 178.612 149.401 C 178.612 148.524 178.011 148.524 178.011 148.524 Z" fill="url(#paint0_linear_2567_1177)" style=""/>
  <path d="M 520.684 57.58 C 559.246 57.58 597.811 57.58 637.251 57.58 C 651.273 57.58 665.294 57.58 679.319 57.58 C 707.365 57.58 727.522 77.782 729.275 105.011 C 729.275 111.159 729.275 117.308 729.275 122.578 C 729.275 127.848 727.522 128.726 723.139 128.726 C 701.229 128.726 679.319 128.726 658.283 128.726 C 651.273 128.726 649.52 130.483 649.52 137.51 C 649.52 203.386 649.52 269.263 649.52 335.137 C 649.52 342.166 648.642 343.922 640.756 343.922 C 603.069 343.922 565.382 343.922 528.573 343.922 C 525.942 343.922 523.314 343.922 519.806 343.922 C 520.684 341.286 519.806 338.653 520.684 336.017 C 537.336 336.017 553.988 336.017 570.64 336.017 C 575.898 336.017 576.776 334.26 576.776 328.99 C 576.776 243.789 575.898 159.468 577.651 74.268 C 577.651 68.998 575.898 68.12 570.64 68.12 C 553.988 68.12 537.336 68.12 520.684 68.12 C 520.684 63.728 520.684 60.215 520.684 57.58 Z" fill="url(#paint2_linear_2567_1177)"/>
  <path d="M 535.25 330.622 C 533.497 333.255 534.374 335.891 534.374 338.527 C 510.711 346.43 486.171 355.216 462.505 363.998 C 457.247 365.755 456.372 364.875 456.372 359.606 C 456.372 301.635 457.247 244.543 457.247 186.572 C 457.247 153.195 458.125 119.817 458.125 86.44 C 458.125 80.292 459.878 77.657 465.136 75.9 C 488.799 67.995 512.464 60.09 535.25 53.063 C 535.25 56.576 535.25 59.212 535.25 62.725 C 535.25 97.859 535.25 132.114 535.25 167.248 C 535.25 222.584 535.25 277.041 535.25 330.622 Z M 501.945 197.99 C 501.945 190.085 496.687 184.815 487.924 184.815 C 478.282 184.815 470.394 190.964 470.394 199.747 C 470.394 206.774 476.53 212.922 485.293 212.922 C 494.059 212.922 501.07 206.774 501.945 197.99 Z" fill="url(#paint3_linear_2567_1177)"/>
  <path d="M 688.105 265.619 C 667.956 265.619 653.063 253.323 652.185 235.759 C 651.311 219.073 667.079 201.508 686.353 198.873 C 704.75 196.239 720.52 205.021 726.651 219.951 C 733.662 240.15 717.014 262.984 693.361 265.619 C 690.734 265.619 688.982 265.619 688.105 265.619 Z" fill="#FE1616"/>
  <path d="M 405.235 177.823 C 402.995 184.766 399.837 191.71 397.597 198.655 C 386.914 227.92 377.112 256.687 366.429 285.952 C 365.73 288.928 363.051 289.92 357.535 289.92 C 345.59 289.92 332.728 289.92 320.819 290.417 C 315.307 290.417 312.475 289.423 311.337 286.447 C 295.042 252.719 277.863 219.487 260.652 185.759 C 258.554 182.287 256.422 178.318 254.325 174.846 C 257.097 212.047 259.831 248.751 262.565 285.456 C 262.899 289.92 261.134 290.912 252.827 290.417 C 234.414 289.92 216.075 290.417 197.698 290.417 C 193.106 290.417 191.228 289.92 191.007 286.944 C 187.755 243.295 184.467 199.151 181.215 155.502 C 180.106 140.622 201.309 129.214 228.874 129.214 C 248.17 129.214 268.384 129.214 287.679 129.214 C 295.949 129.214 298.778 130.206 300.948 134.67 C 309.852 155.502 320.591 176.334 329.494 197.167 C 329.531 197.663 330.487 198.159 330.562 199.151 C 334.162 198.159 334.052 196.67 333.94 195.183 C 340.695 174.846 347.412 154.014 353.249 133.678 C 353.944 130.702 356.629 129.71 362.142 129.71 C 381.437 129.71 400.731 129.71 420.026 129.71 C 452.186 129.71 474.168 141.118 475.424 157.982 C 477.973 192.207 480.523 226.431 483.072 260.656 C 483.7 269.088 484.365 278.015 484.993 286.447 C 485.252 289.92 484.409 290.912 477.056 290.912 C 458.644 290.417 439.387 290.912 421.009 290.912 C 414.576 290.912 413.586 289.92 413.364 286.944 C 410.778 252.223 409.108 217.503 406.521 182.782 C 406.411 181.295 406.3 179.806 406.189 178.318 C 406.152 177.823 405.235 177.823 405.235 177.823 Z" fill="url(#gradient-1)" style="" transform="matrix(0.02107, -0.999778, 0.999778, 0.02107, 116.068031, 538.665894)"/>
  <path d="M 900.819 168.844 C 898.5 176.665 895.227 184.487 892.905 192.309 C 881.835 225.275 871.679 257.68 860.61 290.644 C 859.885 293.997 857.109 295.114 851.394 295.114 C 839.017 295.114 825.689 295.114 813.349 295.675 C 807.638 295.675 804.704 294.554 803.522 291.202 C 786.638 253.21 768.84 215.776 751.005 177.783 C 748.831 173.872 805.99 288.934 803.816 285.023 C 806.688 326.928 752.956 288.943 752.987 290.086 C 753.126 295.116 751.504 296.232 742.898 295.675 C 723.816 295.114 704.815 295.675 685.773 295.675 C 681.015 295.675 679.069 295.114 678.84 291.762 C 675.469 242.594 672.063 192.868 668.693 143.7 C 667.544 126.939 689.514 114.088 718.077 114.088 C 738.07 114.088 759.017 114.088 779.009 114.088 C 787.58 114.088 790.511 115.206 792.76 120.234 C 801.984 143.7 813.112 167.167 822.339 190.633 C 822.375 191.192 823.367 191.752 823.445 192.868 C 827.175 191.752 827.061 190.073 826.945 188.399 C 833.945 165.49 840.904 142.024 846.954 119.118 C 847.673 115.765 850.456 114.647 856.167 114.647 C 876.161 114.647 896.153 114.647 916.146 114.647 C 949.47 114.647 972.247 127.497 973.547 146.494 C 976.19 185.047 978.832 223.598 981.473 262.15 C 982.123 271.648 982.813 281.704 983.465 291.202 C 983.733 295.114 982.858 296.232 975.238 296.232 C 956.162 295.675 936.209 296.232 917.164 296.232 C 910.498 296.232 909.473 295.114 909.243 291.762 C 906.564 252.65 904.833 213.541 902.153 174.429 C 902.037 172.755 901.923 171.077 901.809 169.401 C 901.77 168.844 900.819 168.844 900.819 168.844 Z" fill="url(#gradient-2)" style="" transform="matrix(0.02107, -0.999778, 0.999778, 0.02107, 599.288391, 1030.912109)"/>
</svg>